<svg width="23" height="26" viewBox="0 0 23 26" fill="none" xmlns="http://www.w3.org/2000/svg">
<path d="M14.5792 14.9497H13.721L13.4168 14.6564C14.4814 13.418 15.1224 11.8102 15.1224 10.0612C15.1224 6.16124 11.9611 3 8.06118 3C4.16124 3 1 6.16124 1 10.0612C1 13.9611 4.16124 17.1224 8.06118 17.1224C9.81018 17.1224 11.418 16.4814 12.6564 15.4168L12.9497 15.721V16.5792L18.3814 22L20 20.3814L14.5792 14.9497ZM8.06118 14.9497C5.3562 14.9497 3.17267 12.7662 3.17267 10.0612C3.17267 7.3562 5.3562 5.17267 8.06118 5.17267C10.7662 5.17267 12.9497 7.3562 12.9497 10.0612C12.9497 12.7662 10.7662 14.9497 8.06118 14.9497Z" fill="white"/>
</svg>
