<svg width="30" height="40" viewBox="0 0 30 40" fill="none" xmlns="http://www.w3.org/2000/svg">
<g clip-path="url(#clip0_39_1090)">
<path d="M29.9925 4.90054C29.9925 8.08051 29.9863 11.1991 29.9941 14.3161C30.0019 17.1482 30.0612 19.9802 29.4338 22.7745C28.1106 28.6669 24.8648 33.2873 20.1803 36.9128C18.7259 38.0384 17.0859 38.9263 15.5051 39.8787C15.2695 40.0204 14.8294 40.044 14.5891 39.918C7.48587 36.2076 2.42996 30.7701 0.596408 22.71C0.256226 21.2129 0.07053 19.6512 0.044002 18.1147C-0.0309004 13.8911 0.0159136 9.66735 0.0159136 5.44208C0.0159136 5.28623 0.0315183 5.13195 0.0424416 4.93832C1.20811 4.8171 2.36754 4.73996 3.51292 4.56994C7.45778 3.98275 11.0781 2.53445 14.3597 0.253364C14.845 -0.0835242 15.1478 -0.0850984 15.6378 0.248642C19.851 3.11534 24.4856 4.7132 29.5899 4.85331C29.6882 4.85646 29.7896 4.87535 29.9925 4.90054ZM1.29706 6.23235C1.29238 6.29689 1.27209 6.42441 1.27209 6.55192C1.27209 10.434 1.18782 14.3177 1.31422 18.195C1.37352 20.0369 1.64192 21.9213 2.14751 23.6907C4.08561 30.482 8.56259 35.178 14.5891 38.5075C14.8263 38.6382 15.2617 38.6224 15.502 38.4886C16.5241 37.9188 17.5493 37.3394 18.4965 36.6546C25.0286 31.9193 28.7114 25.6255 28.7379 17.3686C28.7488 13.8548 28.7457 10.3396 28.7457 6.82584C28.7457 6.596 28.7254 6.36616 28.7145 6.15049C28.6099 6.1253 28.56 6.10483 28.5101 6.10169C23.7553 5.72387 19.3798 4.22361 15.3569 1.64185C15.1634 1.51748 14.7233 1.60092 14.4971 1.74417C11.9878 3.32944 9.32254 4.55105 6.45128 5.25474C4.77066 5.66719 3.0479 5.90648 1.29706 6.23235Z" fill="#DB2C23"/>
<path d="M26.291 8.38752C26.0351 12.8741 26.6795 17.3151 25.8026 21.7056C24.7851 26.8062 22.1011 30.8709 18.1282 34.1075C17.3433 34.7467 16.4569 35.2583 15.6252 35.8392C15.2148 36.1257 14.8293 36.1257 14.4018 35.8565C8.40177 32.0957 4.58331 26.8345 3.9482 19.6324C3.62674 15.9896 3.81088 12.2995 3.7703 8.63153C3.76874 8.55754 3.80932 8.48355 3.83896 8.37808C6.71647 7.91368 9.50346 7.12183 12.1438 5.85299C12.963 5.45943 13.7557 5.00762 14.5812 4.62508C14.8013 4.52275 15.1508 4.46765 15.3396 4.5747C18.7243 6.48898 22.3165 7.78774 26.291 8.38752ZM5.01556 9.47218C5.01556 11.122 4.99059 12.745 5.0218 14.3665C5.06081 16.3831 4.95782 18.4249 5.24651 20.4085C6.12973 26.4788 9.40203 31.0236 14.4205 34.3736C14.8621 34.668 15.2054 34.679 15.6049 34.3484C16.8876 33.2858 18.2842 32.3397 19.4452 31.1574C22.6176 27.9223 24.5386 24.0214 24.8538 19.4482C25.0286 16.9168 24.9568 14.3665 24.9911 11.8257C25.002 11.0448 24.9927 10.2625 24.9927 9.4706C21.5518 8.81729 18.3669 7.6555 15.3474 6.02773C15.1758 5.93485 14.8762 5.91281 14.7123 6.00097C11.6741 7.64605 8.46731 8.81257 5.01556 9.47218Z" fill="#DB2C23"/>
</g>
<defs>
<clipPath id="clip0_39_1090">
<rect width="30" height="40" fill="white"/>
</clipPath>
</defs>
</svg>
