<svg width="36" height="34" viewBox="0 0 36 34" fill="none" xmlns="http://www.w3.org/2000/svg">
<g clip-path="url(#clip0_39_1086)">
<path d="M36 1.47477C36 1.47477 36.0089 1.26806 35.8622 0.984211C35.8622 0.970327 35.8622 0.956443 35.8622 0.944102C35.8548 0.944102 35.8474 0.944102 35.8415 0.944102C35.7674 0.809891 35.6592 0.661797 35.5006 0.510617L35.4992 0.509074C35.1672 0.174319 34.7834 0 34.3166 0C30.7439 0.00154265 27.1727 0.00154265 23.5999 0C23.1746 0 22.8057 0.149637 22.4841 0.435027C22.4278 0.485935 22.367 0.532214 22.3018 0.586207C21.8988 0.283848 21.4646 0.155808 20.98 0.237568C18.738 0.61706 16.493 0.973412 14.2554 1.38221C13.307 1.55499 12.2964 1.50408 11.4458 2.13503C11.142 1.80953 10.7479 1.71388 10.3418 1.64601C9.07189 1.43312 7.80343 1.21869 6.53349 1.00426C5.00718 0.746643 3.48088 0.481307 1.9531 0.237568C1.17661 0.114156 0.491993 0.519873 0.165987 1.23258C0.0918947 1.39456 0.0859673 1.501 0.246007 1.61207C0.373446 1.7 0.471248 1.83267 0.582386 1.94682C0.56164 1.96996 0.540894 1.9931 0.52163 2.01624C0.376409 1.8882 0.231188 1.75862 0.078558 1.62287C-0.0696267 1.91906 0.0296571 2.12886 0.207479 2.34483C0.146723 2.32786 0.0859673 2.31089 0.00298382 2.28775C0.00298382 2.4235 0.00298382 2.53457 0.00298382 2.6441C0.00298382 7.24891 0.00446567 11.8553 0.00446567 16.4601C0.00446567 20.8643 0.00446567 25.2686 0.00446567 29.6729C0.00446567 30.8931 0.00446567 32.1118 2.01232e-05 33.332C-0.00146172 33.619 0.0785581 33.855 0.3527 33.963C0.70538 34.1003 1.0299 33.8488 1.03583 33.4277C1.04472 32.8353 1.0388 32.2445 1.0388 31.6428C4.35813 31.0813 7.64339 30.5244 10.9612 29.9629C10.9612 30.1341 10.9612 30.2436 10.9612 30.3532C10.9627 30.7759 10.9553 31.2001 10.9672 31.6228C10.9761 31.919 11.2028 32.1411 11.468 32.1427C11.7437 32.1427 11.9704 31.9375 11.9926 31.6428C12.0089 31.4222 11.9985 31.2001 11.9985 30.9779C11.9985 30.6509 11.9985 30.3223 11.9985 29.9629C15.3268 30.5275 18.6046 31.0828 21.9032 31.6413C21.9032 32.2198 21.8928 32.7721 21.9091 33.3243C21.9136 33.4863 21.961 33.6652 22.0425 33.8025C22.164 34.0093 22.3833 34.0309 22.5878 33.9645C22.8086 33.892 22.9361 33.7208 22.9361 33.4662C22.9361 32.8955 22.9361 32.3247 22.9361 31.7323C26.9637 31.7323 30.9484 31.7323 34.9701 31.7323C34.9701 31.9005 34.9701 32.0208 34.9701 32.1396C34.9701 32.573 34.9627 33.0065 34.9716 33.44C34.9761 33.7084 35.1005 33.9105 35.3599 33.9753C35.6118 34.0386 35.8311 33.9522 35.9437 33.7023C35.9985 33.5819 36.0015 33.4308 36.0015 33.2919C36.003 31.5688 35.9956 29.8456 35.9971 28.1225C35.9985 22.2142 36.0015 16.3043 36.003 10.3959V7.78267H36.0015C36.0015 7.74719 36.003 7.71016 36.003 7.67468C36.003 5.7402 36.003 3.80417 36.0045 1.86969C36.0045 1.79102 36.0045 1.71234 36.0045 1.61978L36 1.47477ZM11.9971 3.5774C11.9971 3.04211 12.1734 2.81379 12.6654 2.73049C15.4512 2.25844 18.2386 1.78793 21.026 1.31897C21.5861 1.22486 21.8988 1.50254 21.8988 2.08875C21.9002 6.36189 21.9002 10.635 21.9002 14.9066C21.9002 18.8666 21.9002 22.8266 21.9002 26.7881C21.9002 26.9177 21.9002 27.0457 21.9002 27.2216C18.6832 26.677 15.512 26.1417 12.3231 25.6018L11.9896 25.5278V25.4475C11.9911 25.4491 11.9941 25.4506 11.9956 25.4522C11.9956 25.3226 11.9956 25.247 11.9956 25.1714C11.9956 23.3573 11.9956 21.5416 11.9956 19.7274V19.425V12.7824C11.9971 12.7577 11.9985 12.733 11.9971 12.7083C11.9941 11.7303 11.9956 10.7538 11.9956 9.77577C11.9971 7.70862 11.9971 5.64301 11.9971 3.5774ZM1.0388 2.19519C1.0388 2.12423 1.03583 2.05327 1.04028 1.98385C1.07436 1.51642 1.40629 1.23412 1.85085 1.30817C3.96989 1.66298 6.08893 2.02241 8.20649 2.38031C8.87481 2.49292 9.54164 2.61016 10.2099 2.71661C10.7686 2.80608 10.9598 3.03285 10.9598 3.62214C10.9598 6.64573 10.9598 9.66779 10.9612 12.6914C10.9612 12.7022 10.9627 12.713 10.9627 12.7238V15.0732C10.9627 15.0763 10.9627 15.0779 10.9627 15.0809C10.9583 16.4107 10.9598 17.7405 10.9598 19.0702C10.9598 20.9862 10.9568 22.9022 10.9627 24.8166V25.2902C10.9538 25.4892 10.8827 25.5617 10.6664 25.5972C8.48952 25.9551 6.31417 26.3299 4.13882 26.6986C3.17562 26.8622 2.21094 27.0241 1.24774 27.1861C1.19291 27.1954 1.13512 27.1938 1.03731 27.1985C1.03731 27.0272 1.03731 26.8699 1.03731 26.7125C1.03731 23.5578 1.03731 20.4031 1.03731 17.2484C1.0388 12.2317 1.0388 7.21343 1.0388 2.19519ZM10.7671 28.9062C7.56337 29.4446 4.3611 29.9876 1.15882 30.5275C1.13215 30.5321 1.10251 30.5213 1.04028 30.5121C1.04028 29.821 1.03435 29.1299 1.05065 28.4387C1.05213 28.3832 1.18994 28.2984 1.27441 28.2845C2.76959 28.0222 4.26626 27.7677 5.76293 27.5132C7.38407 27.237 9.00373 26.964 10.6249 26.6894C10.7182 26.674 10.8145 26.6647 10.9627 26.6462C10.9627 26.8113 10.9627 26.9547 10.9627 27.0982C10.9627 27.6119 10.9568 28.1256 10.9642 28.6377C10.9657 28.7951 10.9272 28.8799 10.7671 28.9062ZM21.9002 30.5429C21.2512 30.4349 20.6347 30.3347 20.0198 30.2313C17.4458 29.7947 14.8733 29.352 12.2979 28.9262C12.0504 28.8861 11.9822 28.7966 11.9896 28.5436C12.0074 27.9235 11.9956 27.3003 11.9956 26.6385C12.5928 26.7372 13.1514 26.8282 13.7116 26.9223C15.9521 27.2987 18.1927 27.6767 20.4317 28.0546C20.8615 28.1271 21.2897 28.2027 21.715 28.2922C21.7847 28.3061 21.8899 28.4002 21.8914 28.4588C21.9047 29.1422 21.9002 29.824 21.9002 30.5429ZM34.9538 30.6463C30.9395 30.6463 26.9637 30.6463 22.9612 30.6463C22.9612 29.9027 22.9612 29.1761 22.9612 28.4218C26.9519 28.4218 30.944 28.4218 34.9538 28.4218C34.9538 29.153 34.9538 29.8827 34.9538 30.6463ZM34.9657 10.3944C34.9657 12.3751 34.9672 14.3574 34.9672 16.3382C34.9672 19.8153 34.9672 23.2925 34.9672 26.7696C34.9672 26.947 34.9672 27.1229 34.9672 27.3003C30.9291 27.3003 26.94 27.3003 22.9331 27.3003C22.9331 27.1445 22.9331 27.0241 22.9331 26.9038C22.9331 18.5997 22.9331 10.2941 22.9331 1.99002C22.9331 1.91906 22.9301 1.84809 22.9361 1.77868C22.9746 1.33285 23.225 1.07831 23.6548 1.07677C27.1875 1.07368 30.7217 1.07523 34.2544 1.07677C34.3507 1.07677 34.4737 1.12305 34.6056 1.19864C34.6782 1.24646 34.9657 1.47323 34.9657 2.07486V2.07641C34.9657 3.62677 34.9657 5.17559 34.9657 6.72595C34.9657 6.99746 34.9627 7.26897 34.9642 7.54047L34.9657 10.3944Z" fill="#DB2C23"/>
</g>
<defs>
<clipPath id="clip0_39_1086">
<rect width="36" height="34" fill="white"/>
</clipPath>
</defs>
</svg>
