<svg width="25" height="40" viewBox="0 0 25 40" fill="none" xmlns="http://www.w3.org/2000/svg">
<path d="M5.8635 36.4727C5.8635 37.3393 5.86642 38.1687 5.86204 38.9981C5.86058 39.5774 5.53953 39.9824 5.07983 39.9988C4.59095 40.0166 4.2232 39.6339 4.2159 39.0383C4.19985 37.923 4.19985 36.8063 4.2159 35.691C4.22466 35.0566 4.55885 34.7618 5.22868 34.7618C7.22507 34.7603 9.22145 34.7678 11.2178 34.7722C11.3492 34.7722 11.4805 34.7722 11.6498 34.7722C11.6498 32.0949 11.6498 29.4415 11.6498 26.718C10.9274 26.718 10.1934 26.7165 9.45932 26.718C7.62201 26.7225 5.78469 26.7329 3.94738 26.7314C3.35781 26.7314 3.1141 26.5081 2.97838 25.9288C2.14801 22.3596 1.31327 18.7904 0.479984 15.2212C0.338428 14.6151 0.186656 14.0121 0.0494777 13.406C-0.125643 12.6347 0.192493 12.1433 0.850657 12.1538C1.26657 12.1597 1.50444 12.3622 1.62703 12.8759C1.97873 14.3486 2.31876 15.8228 2.6617 17.2969C3.01486 18.8083 3.36656 20.3211 3.78539 21.8325C3.78539 21.4945 3.78539 21.155 3.78539 20.817C3.78539 16.8293 3.77518 12.8417 3.78831 8.85406C3.79561 6.59221 4.54863 4.61031 6.05321 2.93812C7.96641 0.810283 10.3554 -0.185882 13.1631 0.0285391C17.0713 0.327835 20.1899 3.12276 21.0436 7.02403C21.1954 7.71941 21.226 8.45351 21.2289 9.16974C21.245 13.3212 21.2348 17.4711 21.2333 21.6226C21.2333 21.6762 21.2377 21.7298 21.3019 21.7983C21.4405 21.2056 21.5792 20.613 21.7163 20.0203C22.2505 17.7153 22.7846 15.4103 23.3202 13.1067C23.3537 12.9623 23.399 12.8209 23.4515 12.6824C23.6106 12.2669 23.9871 12.0614 24.4059 12.1553C24.7766 12.2372 25.0582 12.5781 24.9882 12.9981C24.8554 13.7977 24.67 14.5883 24.4876 15.3775C23.6719 18.908 22.8473 22.4371 22.0286 25.9676C21.9148 26.4575 21.6142 26.7285 21.0888 26.7329C19.9535 26.7433 18.8181 26.7285 17.6842 26.727C16.2423 26.7255 14.802 26.727 13.3353 26.727C13.3353 29.4117 13.3353 32.0592 13.3353 34.7797C13.4871 34.7797 13.6403 34.7797 13.7936 34.7797C15.7374 34.7737 17.6798 34.7663 19.6236 34.7618C19.7564 34.7618 19.8907 34.7663 20.022 34.7812C20.4598 34.8348 20.7269 35.0983 20.7619 35.5421C20.7911 35.9203 20.8057 36.303 20.8028 36.6827C20.7955 37.5508 20.8086 38.4219 20.7459 39.287C20.705 39.8454 20.0892 40.1536 19.6047 39.9094C19.2749 39.7426 19.1421 39.4493 19.145 39.0741C19.1523 38.2194 19.1479 37.3632 19.1479 36.4727C14.7173 36.4727 10.3116 36.4727 5.8635 36.4727ZM19.5594 20.5951C19.5682 20.4209 19.5799 20.3018 19.5799 20.1827C19.5813 16.5226 19.5857 12.8625 19.5755 9.20249C19.574 8.66197 19.5565 8.11103 19.4544 7.58242C18.6065 3.16147 14.192 0.627132 10.1073 2.12659C7.45126 3.10191 5.39067 5.71368 5.42862 9.23376C5.46802 12.8655 5.43737 16.4988 5.43883 20.132C5.43883 20.2735 5.45196 20.4135 5.46364 20.6189C7.66725 19.2207 10.0664 19.0123 12.5035 19.0227C14.9479 19.0331 17.3675 19.191 19.5594 20.5951ZM20.3066 25.0176C20.2745 24.7927 20.2614 24.5917 20.2161 24.3981C19.9111 23.1116 19.11 22.2301 17.9892 21.6285C16.9136 21.0522 15.7608 20.741 14.5495 20.7396C12.8727 20.7381 11.1916 20.7113 9.52353 20.8438C8.12694 20.9555 6.83104 21.4826 5.8168 22.5398C5.16593 23.2173 4.76461 24.0199 4.73251 25.0176C9.92631 25.0176 15.0924 25.0176 20.3066 25.0176Z" fill="#DB2C23"/>
</svg>
