<svg width="100" height="162" viewBox="0 0 100 162" fill="none" xmlns="http://www.w3.org/2000/svg">
<path d="M88.7425 63.48L88.7479 63.4754L88.7531 63.4707C91.7492 60.7676 94.2838 57.2493 96.3641 52.9296C98.462 48.5735 99.5 43.3388 99.5 37.2431C99.5 30.6651 97.709 24.6049 94.1306 19.0736C90.5439 13.3818 85.1732 8.90431 78.0491 5.63034C70.9117 2.20283 62.3107 0.5 52.2636 0.5C41.6183 0.5 32.1359 2.50118 23.8279 6.51666C15.5308 10.5268 8.1286 16.3169 1.62103 23.8783L1.27739 24.2775L1.69405 24.5999L21.9759 40.2905L22.3524 40.5818L22.6618 40.22C30.5262 31.0224 39.3616 26.4724 49.1773 26.4724C54.3933 26.4724 58.3781 27.7067 61.1984 30.1099L61.2086 30.1185L61.2192 30.1266C64.1591 32.372 65.6523 35.6737 65.6523 40.116C65.6523 43.6917 64.5859 46.5838 62.4803 48.8353L62.4744 48.8415L62.4688 48.848C60.4557 51.1542 57.12 53.8504 52.4297 56.9359L52.4297 56.9358L52.4237 56.9399C47.854 60.0431 44.0131 63.004 40.905 65.823L40.9049 65.8229L40.8961 65.8313C37.9009 68.6837 35.2959 72.4966 33.0721 77.2523L33.0719 77.2522L33.0667 77.2641C30.9744 82.0583 29.9386 87.8765 29.9386 94.7017V102.436V102.936H30.4386H59.3182H59.8182V102.436V95.8066C59.8182 90.5928 61.1888 86.4455 63.8856 83.3153C66.7849 79.9734 71.154 76.3187 77.0143 72.3534L77.0205 72.3491C81.8775 68.9556 85.7863 65.9989 88.7425 63.48ZM59.0109 155.828L59.0177 155.821C62.7783 151.901 64.6682 147.284 64.6682 141.994C64.6682 136.704 62.7776 132.158 59.0108 128.382C55.241 124.603 50.6303 122.71 45.2091 122.71C39.7879 122.71 35.1772 124.603 31.4074 128.382L31.4073 128.382L31.4002 128.389C27.7827 132.166 25.9705 136.711 25.9705 141.994C25.9705 147.421 27.78 152.041 31.4002 155.821L31.4074 155.828C35.1772 159.607 39.7879 161.5 45.2091 161.5C50.6303 161.5 55.241 159.607 59.0109 155.828Z" stroke="#DB2C23"/>
</svg>
